<mxfile host="65bd71144e">
    <diagram id="86RDVfU4ysRdni3ZT20Q" name="Page-1">
        <mxGraphModel dx="2813" dy="2357" grid="1" gridSize="10" guides="1" tooltips="1" connect="1" arrows="1" fold="1" page="1" pageScale="1" pageWidth="850" pageHeight="1100" math="0" shadow="0">
            <root>
                <mxCell id="0"/>
                <mxCell id="1" parent="0"/>
                <mxCell id="rkC8hT0lrk7K58_BCCRL-49" value="" style="rounded=0;whiteSpace=wrap;html=1;fillColor=#f5f5f5;strokeColor=#666666;fontColor=#333333;" parent="1" vertex="1">
                    <mxGeometry x="130" y="-110" width="1080" height="900" as="geometry"/>
                </mxCell>
                <mxCell id="rkC8hT0lrk7K58_BCCRL-18" style="edgeStyle=orthogonalEdgeStyle;rounded=0;orthogonalLoop=1;jettySize=auto;html=1;exitX=0.5;exitY=1;exitDx=0;exitDy=0;" parent="1" source="rkC8hT0lrk7K58_BCCRL-1" target="rkC8hT0lrk7K58_BCCRL-2" edge="1">
                    <mxGeometry relative="1" as="geometry"/>
                </mxCell>
                <mxCell id="rkC8hT0lrk7K58_BCCRL-19" style="edgeStyle=orthogonalEdgeStyle;rounded=0;orthogonalLoop=1;jettySize=auto;html=1;exitX=1;exitY=0.5;exitDx=0;exitDy=0;entryX=0;entryY=0.5;entryDx=0;entryDy=0;" parent="1" source="rkC8hT0lrk7K58_BCCRL-1" target="rkC8hT0lrk7K58_BCCRL-4" edge="1">
                    <mxGeometry relative="1" as="geometry"/>
                </mxCell>
                <mxCell id="rkC8hT0lrk7K58_BCCRL-20" style="edgeStyle=orthogonalEdgeStyle;rounded=0;orthogonalLoop=1;jettySize=auto;html=1;exitX=1;exitY=0.5;exitDx=0;exitDy=0;entryX=0;entryY=0.5;entryDx=0;entryDy=0;" parent="1" source="rkC8hT0lrk7K58_BCCRL-1" target="rkC8hT0lrk7K58_BCCRL-3" edge="1">
                    <mxGeometry relative="1" as="geometry"/>
                </mxCell>
                <mxCell id="rkC8hT0lrk7K58_BCCRL-21" style="edgeStyle=orthogonalEdgeStyle;rounded=0;orthogonalLoop=1;jettySize=auto;html=1;entryX=0;entryY=0.5;entryDx=0;entryDy=0;" parent="1" source="rkC8hT0lrk7K58_BCCRL-1" target="rkC8hT0lrk7K58_BCCRL-7" edge="1">
                    <mxGeometry relative="1" as="geometry"/>
                </mxCell>
                <mxCell id="rkC8hT0lrk7K58_BCCRL-22" style="edgeStyle=orthogonalEdgeStyle;rounded=0;orthogonalLoop=1;jettySize=auto;html=1;entryX=0;entryY=0.5;entryDx=0;entryDy=0;" parent="1" source="rkC8hT0lrk7K58_BCCRL-1" target="rkC8hT0lrk7K58_BCCRL-5" edge="1">
                    <mxGeometry relative="1" as="geometry"/>
                </mxCell>
                <mxCell id="rkC8hT0lrk7K58_BCCRL-23" style="edgeStyle=orthogonalEdgeStyle;rounded=0;orthogonalLoop=1;jettySize=auto;html=1;entryX=0;entryY=0.5;entryDx=0;entryDy=0;" parent="1" source="rkC8hT0lrk7K58_BCCRL-1" target="rkC8hT0lrk7K58_BCCRL-6" edge="1">
                    <mxGeometry relative="1" as="geometry"/>
                </mxCell>
                <mxCell id="rkC8hT0lrk7K58_BCCRL-42" style="edgeStyle=orthogonalEdgeStyle;rounded=0;orthogonalLoop=1;jettySize=auto;html=1;exitX=0.5;exitY=0;exitDx=0;exitDy=0;entryX=0.5;entryY=1;entryDx=0;entryDy=0;" parent="1" source="rkC8hT0lrk7K58_BCCRL-1" target="rkC8hT0lrk7K58_BCCRL-41" edge="1">
                    <mxGeometry relative="1" as="geometry"/>
                </mxCell>
                <mxCell id="rkC8hT0lrk7K58_BCCRL-1" value="CoronaCheckController" style="rounded=0;whiteSpace=wrap;html=1;fillColor=#f8cecc;strokeColor=#b85450;" parent="1" vertex="1">
                    <mxGeometry x="170" y="250" width="150" height="60" as="geometry"/>
                </mxCell>
                <mxCell id="rkC8hT0lrk7K58_BCCRL-2" value="Mediator" style="rounded=0;whiteSpace=wrap;html=1;" parent="1" vertex="1">
                    <mxGeometry x="170" y="450" width="150" height="60" as="geometry"/>
                </mxCell>
                <mxCell id="rkC8hT0lrk7K58_BCCRL-3" value="RecordTestResultCommand" style="rounded=0;whiteSpace=wrap;html=1;fillColor=#dae8fc;strokeColor=#6c8ebf;" parent="1" vertex="1">
                    <mxGeometry x="425" y="120" width="150" height="60" as="geometry"/>
                </mxCell>
                <mxCell id="3" style="edgeStyle=none;html=1;entryX=0;entryY=0.5;entryDx=0;entryDy=0;" edge="1" parent="1" source="rkC8hT0lrk7K58_BCCRL-4" target="2">
                    <mxGeometry relative="1" as="geometry">
                        <Array as="points">
                            <mxPoint x="500" y="-60"/>
                        </Array>
                    </mxGeometry>
                </mxCell>
                <mxCell id="rkC8hT0lrk7K58_BCCRL-4" value="ScheduleTest&lt;span style=&quot;color: rgba(0 , 0 , 0 , 0) ; font-family: monospace ; font-size: 0px&quot;&gt;%3CmxGraphModel%3E%3Croot%3E%3CmxCell%20id%3D%220%22%2F%3E%3CmxCell%20id%3D%221%22%20parent%3D%220%22%2F%3E%3CmxCell%20id%3D%222%22%20value%3D%22RecordTestResultCommand%22%20style%3D%22rounded%3D0%3BwhiteSpace%3Dwrap%3Bhtml%3D1%3B%22%20vertex%3D%221%22%20parent%3D%221%22%3E%3CmxGeometry%20x%3D%22410%22%20y%3D%22180%22%20width%3D%22150%22%20height%3D%2260%22%20as%3D%22geometry%22%2F%3E%3C%2FmxCell%3E%3C%2Froot%3E%3C%2FmxGraphModel%3E&lt;/span&gt;&lt;br&gt;AppointmentCommand" style="rounded=0;whiteSpace=wrap;html=1;fillColor=#dae8fc;strokeColor=#6c8ebf;" parent="1" vertex="1">
                    <mxGeometry x="425" y="30" width="150" height="60" as="geometry"/>
                </mxCell>
                <mxCell id="rkC8hT0lrk7K58_BCCRL-5" value="RecordTestAdministered&lt;br&gt;Command" style="rounded=0;whiteSpace=wrap;html=1;fillColor=#dae8fc;strokeColor=#6c8ebf;" parent="1" vertex="1">
                    <mxGeometry x="425" y="300" width="150" height="60" as="geometry"/>
                </mxCell>
                <mxCell id="rkC8hT0lrk7K58_BCCRL-6" value="GetTestResult" style="rounded=0;whiteSpace=wrap;html=1;fillColor=#dae8fc;strokeColor=#6c8ebf;" parent="1" vertex="1">
                    <mxGeometry x="425" y="380" width="150" height="60" as="geometry"/>
                </mxCell>
                <mxCell id="rkC8hT0lrk7K58_BCCRL-7" value="CancelTestCommand" style="rounded=0;whiteSpace=wrap;html=1;fillColor=#dae8fc;strokeColor=#6c8ebf;" parent="1" vertex="1">
                    <mxGeometry x="425" y="210" width="150" height="60" as="geometry"/>
                </mxCell>
                <mxCell id="rkC8hT0lrk7K58_BCCRL-14" style="edgeStyle=orthogonalEdgeStyle;rounded=0;orthogonalLoop=1;jettySize=auto;html=1;exitX=0;exitY=0.5;exitDx=0;exitDy=0;" parent="1" source="rkC8hT0lrk7K58_BCCRL-8" target="rkC8hT0lrk7K58_BCCRL-4" edge="1">
                    <mxGeometry relative="1" as="geometry"/>
                </mxCell>
                <mxCell id="rkC8hT0lrk7K58_BCCRL-25" style="edgeStyle=orthogonalEdgeStyle;rounded=0;orthogonalLoop=1;jettySize=auto;html=1;exitX=1;exitY=0.5;exitDx=0;exitDy=0;entryX=0;entryY=0.5;entryDx=0;entryDy=0;" parent="1" source="rkC8hT0lrk7K58_BCCRL-8" target="rkC8hT0lrk7K58_BCCRL-24" edge="1">
                    <mxGeometry relative="1" as="geometry"/>
                </mxCell>
                <mxCell id="rkC8hT0lrk7K58_BCCRL-34" style="edgeStyle=orthogonalEdgeStyle;rounded=0;orthogonalLoop=1;jettySize=auto;html=1;exitX=1;exitY=0.25;exitDx=0;exitDy=0;entryX=0;entryY=0.5;entryDx=0;entryDy=0;" parent="1" source="rkC8hT0lrk7K58_BCCRL-8" target="rkC8hT0lrk7K58_BCCRL-32" edge="1">
                    <mxGeometry relative="1" as="geometry">
                        <Array as="points">
                            <mxPoint x="850" y="45"/>
                            <mxPoint x="850" y="120"/>
                        </Array>
                    </mxGeometry>
                </mxCell>
                <mxCell id="rkC8hT0lrk7K58_BCCRL-8" value="ScheduleTest&lt;span style=&quot;color: rgba(0 , 0 , 0 , 0) ; font-family: monospace ; font-size: 0px&quot;&gt;%3CmxGraphModel%3E%3Croot%3E%3CmxCell%20id%3D%220%22%2F%3E%3CmxCell%20id%3D%221%22%20parent%3D%220%22%2F%3E%3CmxCell%20id%3D%222%22%20value%3D%22RecordTestResultCommand%22%20style%3D%22rounded%3D0%3BwhiteSpace%3Dwrap%3Bhtml%3D1%3B%22%20vertex%3D%221%22%20parent%3D%221%22%3E%3CmxGeometry%20x%3D%22410%22%20y%3D%22180%22%20width%3D%22150%22%20height%3D%2260%22%20as%3D%22geometry%22%2F%3E%3C%2FmxCell%3E%3C%2Froot%3E%3C%2FmxGraphModel%3E&lt;/span&gt;&lt;br&gt;AppointmentCommand&lt;br&gt;&lt;b&gt;Handler&lt;/b&gt;" style="rounded=0;whiteSpace=wrap;html=1;fillColor=#f8cecc;strokeColor=#b85450;" parent="1" vertex="1">
                    <mxGeometry x="630" y="30" width="150" height="60" as="geometry"/>
                </mxCell>
                <mxCell id="rkC8hT0lrk7K58_BCCRL-13" value="" style="edgeStyle=orthogonalEdgeStyle;rounded=0;orthogonalLoop=1;jettySize=auto;html=1;" parent="1" source="rkC8hT0lrk7K58_BCCRL-9" target="rkC8hT0lrk7K58_BCCRL-3" edge="1">
                    <mxGeometry relative="1" as="geometry"/>
                </mxCell>
                <mxCell id="rkC8hT0lrk7K58_BCCRL-26" style="edgeStyle=orthogonalEdgeStyle;rounded=0;orthogonalLoop=1;jettySize=auto;html=1;entryX=0;entryY=0.5;entryDx=0;entryDy=0;" parent="1" source="rkC8hT0lrk7K58_BCCRL-9" target="rkC8hT0lrk7K58_BCCRL-24" edge="1">
                    <mxGeometry relative="1" as="geometry"/>
                </mxCell>
                <mxCell id="rkC8hT0lrk7K58_BCCRL-36" style="edgeStyle=orthogonalEdgeStyle;rounded=0;orthogonalLoop=1;jettySize=auto;html=1;exitX=1;exitY=0.25;exitDx=0;exitDy=0;entryX=0;entryY=0.5;entryDx=0;entryDy=0;fillColor=#dae8fc;strokeColor=#6c8ebf;" parent="1" source="rkC8hT0lrk7K58_BCCRL-9" target="rkC8hT0lrk7K58_BCCRL-32" edge="1">
                    <mxGeometry relative="1" as="geometry">
                        <Array as="points">
                            <mxPoint x="850" y="135"/>
                            <mxPoint x="850" y="120"/>
                        </Array>
                    </mxGeometry>
                </mxCell>
                <mxCell id="rkC8hT0lrk7K58_BCCRL-9" value="RecordTestResult&lt;br&gt;Command&lt;b&gt;Handler&lt;/b&gt;" style="rounded=0;whiteSpace=wrap;html=1;fillColor=#f8cecc;strokeColor=#b85450;" parent="1" vertex="1">
                    <mxGeometry x="630" y="120" width="150" height="60" as="geometry"/>
                </mxCell>
                <mxCell id="rkC8hT0lrk7K58_BCCRL-16" style="edgeStyle=orthogonalEdgeStyle;rounded=0;orthogonalLoop=1;jettySize=auto;html=1;exitX=0;exitY=0.5;exitDx=0;exitDy=0;entryX=1;entryY=0.5;entryDx=0;entryDy=0;" parent="1" source="rkC8hT0lrk7K58_BCCRL-10" target="rkC8hT0lrk7K58_BCCRL-5" edge="1">
                    <mxGeometry relative="1" as="geometry"/>
                </mxCell>
                <mxCell id="rkC8hT0lrk7K58_BCCRL-28" style="edgeStyle=orthogonalEdgeStyle;rounded=0;orthogonalLoop=1;jettySize=auto;html=1;entryX=0;entryY=0.5;entryDx=0;entryDy=0;" parent="1" source="rkC8hT0lrk7K58_BCCRL-10" target="rkC8hT0lrk7K58_BCCRL-24" edge="1">
                    <mxGeometry relative="1" as="geometry"/>
                </mxCell>
                <mxCell id="rkC8hT0lrk7K58_BCCRL-38" style="edgeStyle=orthogonalEdgeStyle;rounded=0;orthogonalLoop=1;jettySize=auto;html=1;exitX=1;exitY=0.25;exitDx=0;exitDy=0;entryX=0;entryY=0.5;entryDx=0;entryDy=0;fillColor=#dae8fc;strokeColor=#6c8ebf;" parent="1" source="rkC8hT0lrk7K58_BCCRL-10" target="rkC8hT0lrk7K58_BCCRL-32" edge="1">
                    <mxGeometry relative="1" as="geometry">
                        <Array as="points">
                            <mxPoint x="850" y="315"/>
                            <mxPoint x="850" y="120"/>
                        </Array>
                    </mxGeometry>
                </mxCell>
                <mxCell id="rkC8hT0lrk7K58_BCCRL-10" value="RecordTestAdministered&lt;br&gt;Command&lt;b&gt;Handler&lt;/b&gt;" style="rounded=0;whiteSpace=wrap;html=1;fillColor=#f8cecc;strokeColor=#b85450;" parent="1" vertex="1">
                    <mxGeometry x="630" y="300" width="150" height="60" as="geometry"/>
                </mxCell>
                <mxCell id="rkC8hT0lrk7K58_BCCRL-17" style="edgeStyle=orthogonalEdgeStyle;rounded=0;orthogonalLoop=1;jettySize=auto;html=1;exitX=0;exitY=0.5;exitDx=0;exitDy=0;entryX=1;entryY=0.5;entryDx=0;entryDy=0;" parent="1" source="rkC8hT0lrk7K58_BCCRL-11" target="rkC8hT0lrk7K58_BCCRL-6" edge="1">
                    <mxGeometry relative="1" as="geometry"/>
                </mxCell>
                <mxCell id="rkC8hT0lrk7K58_BCCRL-29" style="edgeStyle=orthogonalEdgeStyle;rounded=0;orthogonalLoop=1;jettySize=auto;html=1;entryX=0;entryY=0.5;entryDx=0;entryDy=0;" parent="1" source="rkC8hT0lrk7K58_BCCRL-11" target="rkC8hT0lrk7K58_BCCRL-24" edge="1">
                    <mxGeometry relative="1" as="geometry"/>
                </mxCell>
                <mxCell id="rkC8hT0lrk7K58_BCCRL-39" style="edgeStyle=orthogonalEdgeStyle;rounded=0;orthogonalLoop=1;jettySize=auto;html=1;exitX=1;exitY=0.25;exitDx=0;exitDy=0;entryX=0;entryY=0.5;entryDx=0;entryDy=0;fillColor=#dae8fc;strokeColor=#6c8ebf;" parent="1" source="rkC8hT0lrk7K58_BCCRL-11" target="rkC8hT0lrk7K58_BCCRL-32" edge="1">
                    <mxGeometry relative="1" as="geometry">
                        <Array as="points">
                            <mxPoint x="850" y="395"/>
                            <mxPoint x="850" y="120"/>
                        </Array>
                    </mxGeometry>
                </mxCell>
                <mxCell id="rkC8hT0lrk7K58_BCCRL-47" style="edgeStyle=orthogonalEdgeStyle;rounded=0;orthogonalLoop=1;jettySize=auto;html=1;exitX=0.5;exitY=1;exitDx=0;exitDy=0;entryX=0;entryY=0.5;entryDx=0;entryDy=0;" parent="1" source="rkC8hT0lrk7K58_BCCRL-11" target="rkC8hT0lrk7K58_BCCRL-46" edge="1">
                    <mxGeometry relative="1" as="geometry"/>
                </mxCell>
                <mxCell id="rkC8hT0lrk7K58_BCCRL-11" value="GetTestResultQuery&lt;br&gt;&lt;b&gt;Handler&lt;/b&gt;" style="rounded=0;whiteSpace=wrap;html=1;fillColor=#f8cecc;strokeColor=#b85450;" parent="1" vertex="1">
                    <mxGeometry x="630" y="380" width="150" height="60" as="geometry"/>
                </mxCell>
                <mxCell id="rkC8hT0lrk7K58_BCCRL-15" style="edgeStyle=orthogonalEdgeStyle;rounded=0;orthogonalLoop=1;jettySize=auto;html=1;exitX=0;exitY=0.5;exitDx=0;exitDy=0;" parent="1" source="rkC8hT0lrk7K58_BCCRL-12" target="rkC8hT0lrk7K58_BCCRL-7" edge="1">
                    <mxGeometry relative="1" as="geometry"/>
                </mxCell>
                <mxCell id="rkC8hT0lrk7K58_BCCRL-27" style="edgeStyle=orthogonalEdgeStyle;rounded=0;orthogonalLoop=1;jettySize=auto;html=1;exitX=1;exitY=0.5;exitDx=0;exitDy=0;entryX=0;entryY=0.5;entryDx=0;entryDy=0;" parent="1" source="rkC8hT0lrk7K58_BCCRL-12" target="rkC8hT0lrk7K58_BCCRL-24" edge="1">
                    <mxGeometry relative="1" as="geometry"/>
                </mxCell>
                <mxCell id="rkC8hT0lrk7K58_BCCRL-37" style="edgeStyle=orthogonalEdgeStyle;rounded=0;orthogonalLoop=1;jettySize=auto;html=1;exitX=1;exitY=0.25;exitDx=0;exitDy=0;fillColor=#dae8fc;strokeColor=#6c8ebf;" parent="1" source="rkC8hT0lrk7K58_BCCRL-12" edge="1">
                    <mxGeometry relative="1" as="geometry">
                        <mxPoint x="880" y="120" as="targetPoint"/>
                        <Array as="points">
                            <mxPoint x="850" y="225"/>
                            <mxPoint x="850" y="120"/>
                        </Array>
                    </mxGeometry>
                </mxCell>
                <mxCell id="rkC8hT0lrk7K58_BCCRL-12" value="CancelTest&lt;br&gt;Command&lt;b&gt;Handler&lt;/b&gt;" style="rounded=0;whiteSpace=wrap;html=1;fillColor=#f8cecc;strokeColor=#b85450;" parent="1" vertex="1">
                    <mxGeometry x="630" y="210" width="150" height="60" as="geometry"/>
                </mxCell>
                <mxCell id="rkC8hT0lrk7K58_BCCRL-31" style="edgeStyle=orthogonalEdgeStyle;rounded=0;orthogonalLoop=1;jettySize=auto;html=1;exitX=1;exitY=0.5;exitDx=0;exitDy=0;" parent="1" source="rkC8hT0lrk7K58_BCCRL-24" target="rkC8hT0lrk7K58_BCCRL-30" edge="1">
                    <mxGeometry relative="1" as="geometry"/>
                </mxCell>
                <mxCell id="rkC8hT0lrk7K58_BCCRL-33" style="edgeStyle=orthogonalEdgeStyle;rounded=0;orthogonalLoop=1;jettySize=auto;html=1;exitX=0.5;exitY=0;exitDx=0;exitDy=0;entryX=0.5;entryY=1;entryDx=0;entryDy=0;" parent="1" source="rkC8hT0lrk7K58_BCCRL-24" target="rkC8hT0lrk7K58_BCCRL-32" edge="1">
                    <mxGeometry relative="1" as="geometry"/>
                </mxCell>
                <mxCell id="rkC8hT0lrk7K58_BCCRL-48" style="edgeStyle=orthogonalEdgeStyle;rounded=0;orthogonalLoop=1;jettySize=auto;html=1;exitX=0.5;exitY=1;exitDx=0;exitDy=0;entryX=1;entryY=0.5;entryDx=0;entryDy=0;" parent="1" source="rkC8hT0lrk7K58_BCCRL-24" target="rkC8hT0lrk7K58_BCCRL-46" edge="1">
                    <mxGeometry relative="1" as="geometry"/>
                </mxCell>
                <mxCell id="rkC8hT0lrk7K58_BCCRL-24" value="CoronaTestRepository" style="rounded=0;whiteSpace=wrap;html=1;fillColor=#f8cecc;strokeColor=#b85450;" parent="1" vertex="1">
                    <mxGeometry x="880" y="210" width="150" height="60" as="geometry"/>
                </mxCell>
                <mxCell id="rkC8hT0lrk7K58_BCCRL-30" value="CoronaTestDbContext" style="rounded=0;whiteSpace=wrap;html=1;" parent="1" vertex="1">
                    <mxGeometry x="1050" y="320" width="150" height="60" as="geometry"/>
                </mxCell>
                <mxCell id="rkC8hT0lrk7K58_BCCRL-32" value="CoronaTestEntity" style="rounded=0;whiteSpace=wrap;html=1;fillColor=#dae8fc;strokeColor=#6c8ebf;" parent="1" vertex="1">
                    <mxGeometry x="880" y="90" width="150" height="60" as="geometry"/>
                </mxCell>
                <mxCell id="rkC8hT0lrk7K58_BCCRL-41" value="ScheduleTestRequest" style="rounded=0;whiteSpace=wrap;html=1;fillColor=#dae8fc;strokeColor=#6c8ebf;" parent="1" vertex="1">
                    <mxGeometry x="185" y="110" width="120" height="60" as="geometry"/>
                </mxCell>
                <mxCell id="rkC8hT0lrk7K58_BCCRL-43" value="DTO" style="rounded=0;whiteSpace=wrap;html=1;fillColor=#dae8fc;strokeColor=#6c8ebf;" parent="1" vertex="1">
                    <mxGeometry x="890" y="630" width="100" height="30" as="geometry"/>
                </mxCell>
                <mxCell id="rkC8hT0lrk7K58_BCCRL-44" value="DTO" style="rounded=0;whiteSpace=wrap;html=1;fillColor=#f8cecc;strokeColor=#b85450;" parent="1" vertex="1">
                    <mxGeometry x="890" y="680" width="100" height="30" as="geometry"/>
                </mxCell>
                <mxCell id="rkC8hT0lrk7K58_BCCRL-45" value="Library / infra" style="rounded=0;whiteSpace=wrap;html=1;" parent="1" vertex="1">
                    <mxGeometry x="890" y="730" width="100" height="30" as="geometry"/>
                </mxCell>
                <mxCell id="rkC8hT0lrk7K58_BCCRL-46" value="DateTimeProvider" style="rounded=0;whiteSpace=wrap;html=1;" parent="1" vertex="1">
                    <mxGeometry x="760" y="470" width="150" height="60" as="geometry"/>
                </mxCell>
                <mxCell id="2" value="EmailSender" style="rounded=0;whiteSpace=wrap;html=1;fillColor=#dae8fc;strokeColor=#6c8ebf;" vertex="1" parent="1">
                    <mxGeometry x="595" y="-90" width="150" height="60" as="geometry"/>
                </mxCell>
            </root>
        </mxGraphModel>
    </diagram>
</mxfile>